<mxfile host="app.diagrams.net" modified="2023-07-03T09:32:03.442Z" agent="Mozilla/5.0 (Windows NT 10.0; Win64; x64; rv:109.0) Gecko/20100101 Firefox/114.0" etag="jx3NCu-HhXEH9l4YFjrs" version="21.5.0">
  <diagram name="Страница 1" id="9XCJwp6ehZ5ffl551vA0">
    <mxGraphModel dx="1050" dy="538" grid="1" gridSize="10" guides="1" tooltips="1" connect="1" arrows="1" fold="1" page="1" pageScale="1" pageWidth="827" pageHeight="1169" math="0" shadow="0">
      <root>
        <mxCell id="0" />
        <mxCell id="1" parent="0" />
        <mxCell id="bHGPRDREGYTepMsv2Tip-14" value="cabinet" style="shape=table;startSize=30;container=1;collapsible=0;childLayout=tableLayout;fixedRows=1;rowLines=0;fontStyle=0;strokeColor=default;fontSize=16;" vertex="1" parent="1">
          <mxGeometry x="40" y="40" width="180" height="230" as="geometry" />
        </mxCell>
        <mxCell id="bHGPRDREGYTepMsv2Tip-15" value="" style="shape=tableRow;horizontal=0;startSize=0;swimlaneHead=0;swimlaneBody=0;top=0;left=0;bottom=0;right=0;collapsible=0;dropTarget=0;fillColor=none;points=[[0,0.5],[1,0.5]];portConstraint=eastwest;strokeColor=inherit;fontSize=16;" vertex="1" parent="bHGPRDREGYTepMsv2Tip-14">
          <mxGeometry y="30" width="180" height="70" as="geometry" />
        </mxCell>
        <mxCell id="bHGPRDREGYTepMsv2Tip-16" value="1" style="shape=partialRectangle;html=1;whiteSpace=wrap;connectable=0;fillColor=none;top=0;left=0;bottom=0;right=0;overflow=hidden;pointerEvents=1;strokeColor=inherit;fontSize=16;" vertex="1" parent="bHGPRDREGYTepMsv2Tip-15">
          <mxGeometry width="40" height="70" as="geometry">
            <mxRectangle width="40" height="70" as="alternateBounds" />
          </mxGeometry>
        </mxCell>
        <mxCell id="bHGPRDREGYTepMsv2Tip-17" value="number cabinet VARCHAR(5) ID PK" style="shape=partialRectangle;html=1;whiteSpace=wrap;connectable=0;fillColor=none;top=0;left=0;bottom=0;right=0;align=left;spacingLeft=6;overflow=hidden;strokeColor=inherit;fontSize=16;" vertex="1" parent="bHGPRDREGYTepMsv2Tip-15">
          <mxGeometry x="40" width="140" height="70" as="geometry">
            <mxRectangle width="140" height="70" as="alternateBounds" />
          </mxGeometry>
        </mxCell>
        <mxCell id="bHGPRDREGYTepMsv2Tip-18" value="" style="shape=tableRow;horizontal=0;startSize=0;swimlaneHead=0;swimlaneBody=0;top=0;left=0;bottom=0;right=0;collapsible=0;dropTarget=0;fillColor=none;points=[[0,0.5],[1,0.5]];portConstraint=eastwest;strokeColor=inherit;fontSize=16;" vertex="1" parent="bHGPRDREGYTepMsv2Tip-14">
          <mxGeometry y="100" width="180" height="30" as="geometry" />
        </mxCell>
        <mxCell id="bHGPRDREGYTepMsv2Tip-19" value="2" style="shape=partialRectangle;html=1;whiteSpace=wrap;connectable=0;fillColor=none;top=0;left=0;bottom=0;right=0;overflow=hidden;strokeColor=inherit;fontSize=16;" vertex="1" parent="bHGPRDREGYTepMsv2Tip-18">
          <mxGeometry width="40" height="30" as="geometry">
            <mxRectangle width="40" height="30" as="alternateBounds" />
          </mxGeometry>
        </mxCell>
        <mxCell id="bHGPRDREGYTepMsv2Tip-20" value="Row INT(10)" style="shape=partialRectangle;html=1;whiteSpace=wrap;connectable=0;fillColor=none;top=0;left=0;bottom=0;right=0;align=left;spacingLeft=6;overflow=hidden;strokeColor=inherit;fontSize=16;" vertex="1" parent="bHGPRDREGYTepMsv2Tip-18">
          <mxGeometry x="40" width="140" height="30" as="geometry">
            <mxRectangle width="140" height="30" as="alternateBounds" />
          </mxGeometry>
        </mxCell>
        <mxCell id="bHGPRDREGYTepMsv2Tip-21" value="" style="shape=tableRow;horizontal=0;startSize=0;swimlaneHead=0;swimlaneBody=0;top=0;left=0;bottom=0;right=0;collapsible=0;dropTarget=0;fillColor=none;points=[[0,0.5],[1,0.5]];portConstraint=eastwest;strokeColor=inherit;fontSize=16;" vertex="1" parent="bHGPRDREGYTepMsv2Tip-14">
          <mxGeometry y="130" width="180" height="80" as="geometry" />
        </mxCell>
        <mxCell id="bHGPRDREGYTepMsv2Tip-22" value="3" style="shape=partialRectangle;html=1;whiteSpace=wrap;connectable=0;fillColor=none;top=0;left=0;bottom=0;right=0;overflow=hidden;strokeColor=inherit;fontSize=16;" vertex="1" parent="bHGPRDREGYTepMsv2Tip-21">
          <mxGeometry width="40" height="80" as="geometry">
            <mxRectangle width="40" height="80" as="alternateBounds" />
          </mxGeometry>
        </mxCell>
        <mxCell id="bHGPRDREGYTepMsv2Tip-23" value="Desk INT (10)" style="shape=partialRectangle;html=1;whiteSpace=wrap;connectable=0;fillColor=none;top=0;left=0;bottom=0;right=0;align=left;spacingLeft=6;overflow=hidden;strokeColor=inherit;fontSize=16;" vertex="1" parent="bHGPRDREGYTepMsv2Tip-21">
          <mxGeometry x="40" width="140" height="80" as="geometry">
            <mxRectangle width="140" height="80" as="alternateBounds" />
          </mxGeometry>
        </mxCell>
        <mxCell id="bHGPRDREGYTepMsv2Tip-37" value="" style="shape=tableRow;horizontal=0;startSize=0;swimlaneHead=0;swimlaneBody=0;top=0;left=0;bottom=0;right=0;collapsible=0;dropTarget=0;fillColor=none;points=[[0,0.5],[1,0.5]];portConstraint=eastwest;strokeColor=inherit;fontSize=16;" vertex="1" parent="bHGPRDREGYTepMsv2Tip-14">
          <mxGeometry y="210" width="180" height="20" as="geometry" />
        </mxCell>
        <mxCell id="bHGPRDREGYTepMsv2Tip-38" value="4" style="shape=partialRectangle;html=1;whiteSpace=wrap;connectable=0;fillColor=none;top=0;left=0;bottom=0;right=0;overflow=hidden;strokeColor=inherit;fontSize=16;" vertex="1" parent="bHGPRDREGYTepMsv2Tip-37">
          <mxGeometry width="40" height="20" as="geometry">
            <mxRectangle width="40" height="20" as="alternateBounds" />
          </mxGeometry>
        </mxCell>
        <mxCell id="bHGPRDREGYTepMsv2Tip-39" value="Variant INT(1)" style="shape=partialRectangle;html=1;whiteSpace=wrap;connectable=0;fillColor=none;top=0;left=0;bottom=0;right=0;align=left;spacingLeft=6;overflow=hidden;strokeColor=inherit;fontSize=16;" vertex="1" parent="bHGPRDREGYTepMsv2Tip-37">
          <mxGeometry x="40" width="140" height="20" as="geometry">
            <mxRectangle width="140" height="20" as="alternateBounds" />
          </mxGeometry>
        </mxCell>
        <mxCell id="bHGPRDREGYTepMsv2Tip-40" value="Lesson" style="shape=table;startSize=20;container=1;collapsible=0;childLayout=tableLayout;fixedRows=1;rowLines=0;fontStyle=0;strokeColor=default;fontSize=16;" vertex="1" parent="1">
          <mxGeometry x="40" y="330" width="240" height="270" as="geometry" />
        </mxCell>
        <mxCell id="bHGPRDREGYTepMsv2Tip-41" value="" style="shape=tableRow;horizontal=0;startSize=0;swimlaneHead=0;swimlaneBody=0;top=0;left=0;bottom=0;right=0;collapsible=0;dropTarget=0;fillColor=none;points=[[0,0.5],[1,0.5]];portConstraint=eastwest;strokeColor=inherit;fontSize=16;" vertex="1" parent="bHGPRDREGYTepMsv2Tip-40">
          <mxGeometry y="20" width="240" height="50" as="geometry" />
        </mxCell>
        <mxCell id="bHGPRDREGYTepMsv2Tip-42" value="1" style="shape=partialRectangle;html=1;whiteSpace=wrap;connectable=0;fillColor=none;top=0;left=0;bottom=0;right=0;overflow=hidden;pointerEvents=1;strokeColor=inherit;fontSize=16;" vertex="1" parent="bHGPRDREGYTepMsv2Tip-41">
          <mxGeometry width="41" height="50" as="geometry">
            <mxRectangle width="41" height="50" as="alternateBounds" />
          </mxGeometry>
        </mxCell>
        <mxCell id="bHGPRDREGYTepMsv2Tip-43" value="Item VARCHAR (45) FK" style="shape=partialRectangle;html=1;whiteSpace=wrap;connectable=0;fillColor=none;top=0;left=0;bottom=0;right=0;align=left;spacingLeft=6;overflow=hidden;strokeColor=inherit;fontSize=16;" vertex="1" parent="bHGPRDREGYTepMsv2Tip-41">
          <mxGeometry x="41" width="199" height="50" as="geometry">
            <mxRectangle width="199" height="50" as="alternateBounds" />
          </mxGeometry>
        </mxCell>
        <mxCell id="bHGPRDREGYTepMsv2Tip-47" value="" style="shape=tableRow;horizontal=0;startSize=0;swimlaneHead=0;swimlaneBody=0;top=0;left=0;bottom=0;right=0;collapsible=0;dropTarget=0;fillColor=none;points=[[0,0.5],[1,0.5]];portConstraint=eastwest;strokeColor=inherit;fontSize=16;" vertex="1" parent="bHGPRDREGYTepMsv2Tip-40">
          <mxGeometry y="70" width="240" height="50" as="geometry" />
        </mxCell>
        <mxCell id="bHGPRDREGYTepMsv2Tip-48" value="2" style="shape=partialRectangle;html=1;whiteSpace=wrap;connectable=0;fillColor=none;top=0;left=0;bottom=0;right=0;overflow=hidden;strokeColor=inherit;fontSize=16;" vertex="1" parent="bHGPRDREGYTepMsv2Tip-47">
          <mxGeometry width="41" height="50" as="geometry">
            <mxRectangle width="41" height="50" as="alternateBounds" />
          </mxGeometry>
        </mxCell>
        <mxCell id="bHGPRDREGYTepMsv2Tip-49" value="Number Cabinet VARCHAR (5) FK" style="shape=partialRectangle;html=1;whiteSpace=wrap;connectable=0;fillColor=none;top=0;left=0;bottom=0;right=0;align=left;spacingLeft=6;overflow=hidden;strokeColor=inherit;fontSize=16;" vertex="1" parent="bHGPRDREGYTepMsv2Tip-47">
          <mxGeometry x="41" width="199" height="50" as="geometry">
            <mxRectangle width="199" height="50" as="alternateBounds" />
          </mxGeometry>
        </mxCell>
        <mxCell id="bHGPRDREGYTepMsv2Tip-50" value="" style="shape=tableRow;horizontal=0;startSize=0;swimlaneHead=0;swimlaneBody=0;top=0;left=0;bottom=0;right=0;collapsible=0;dropTarget=0;fillColor=none;points=[[0,0.5],[1,0.5]];portConstraint=eastwest;strokeColor=inherit;fontSize=16;" vertex="1" parent="bHGPRDREGYTepMsv2Tip-40">
          <mxGeometry y="120" width="240" height="50" as="geometry" />
        </mxCell>
        <mxCell id="bHGPRDREGYTepMsv2Tip-51" value="3" style="shape=partialRectangle;html=1;whiteSpace=wrap;connectable=0;fillColor=none;top=0;left=0;bottom=0;right=0;overflow=hidden;pointerEvents=1;strokeColor=inherit;fontSize=16;" vertex="1" parent="bHGPRDREGYTepMsv2Tip-50">
          <mxGeometry width="41" height="50" as="geometry">
            <mxRectangle width="41" height="50" as="alternateBounds" />
          </mxGeometry>
        </mxCell>
        <mxCell id="bHGPRDREGYTepMsv2Tip-52" value="TimeStart &lt;em&gt;TimeStamp&lt;/em&gt;." style="shape=partialRectangle;html=1;whiteSpace=wrap;connectable=0;fillColor=none;top=0;left=0;bottom=0;right=0;align=left;spacingLeft=6;overflow=hidden;strokeColor=inherit;fontSize=16;" vertex="1" parent="bHGPRDREGYTepMsv2Tip-50">
          <mxGeometry x="41" width="199" height="50" as="geometry">
            <mxRectangle width="199" height="50" as="alternateBounds" />
          </mxGeometry>
        </mxCell>
        <mxCell id="bHGPRDREGYTepMsv2Tip-53" value="" style="shape=tableRow;horizontal=0;startSize=0;swimlaneHead=0;swimlaneBody=0;top=0;left=0;bottom=0;right=0;collapsible=0;dropTarget=0;fillColor=none;points=[[0,0.5],[1,0.5]];portConstraint=eastwest;strokeColor=inherit;fontSize=16;" vertex="1" parent="bHGPRDREGYTepMsv2Tip-40">
          <mxGeometry y="170" width="240" height="50" as="geometry" />
        </mxCell>
        <mxCell id="bHGPRDREGYTepMsv2Tip-54" value="4" style="shape=partialRectangle;html=1;whiteSpace=wrap;connectable=0;fillColor=none;top=0;left=0;bottom=0;right=0;overflow=hidden;pointerEvents=1;strokeColor=inherit;fontSize=16;" vertex="1" parent="bHGPRDREGYTepMsv2Tip-53">
          <mxGeometry width="41" height="50" as="geometry">
            <mxRectangle width="41" height="50" as="alternateBounds" />
          </mxGeometry>
        </mxCell>
        <mxCell id="bHGPRDREGYTepMsv2Tip-55" value="TimeStop &lt;em&gt;TimeStamp&lt;/em&gt;." style="shape=partialRectangle;html=1;whiteSpace=wrap;connectable=0;fillColor=none;top=0;left=0;bottom=0;right=0;align=left;spacingLeft=6;overflow=hidden;strokeColor=inherit;fontSize=16;" vertex="1" parent="bHGPRDREGYTepMsv2Tip-53">
          <mxGeometry x="41" width="199" height="50" as="geometry">
            <mxRectangle width="199" height="50" as="alternateBounds" />
          </mxGeometry>
        </mxCell>
        <mxCell id="bHGPRDREGYTepMsv2Tip-56" value="" style="shape=tableRow;horizontal=0;startSize=0;swimlaneHead=0;swimlaneBody=0;top=0;left=0;bottom=0;right=0;collapsible=0;dropTarget=0;fillColor=none;points=[[0,0.5],[1,0.5]];portConstraint=eastwest;strokeColor=inherit;fontSize=16;" vertex="1" parent="bHGPRDREGYTepMsv2Tip-40">
          <mxGeometry y="220" width="240" height="50" as="geometry" />
        </mxCell>
        <mxCell id="bHGPRDREGYTepMsv2Tip-57" value="5" style="shape=partialRectangle;html=1;whiteSpace=wrap;connectable=0;fillColor=none;top=0;left=0;bottom=0;right=0;overflow=hidden;pointerEvents=1;strokeColor=inherit;fontSize=16;" vertex="1" parent="bHGPRDREGYTepMsv2Tip-56">
          <mxGeometry width="41" height="50" as="geometry">
            <mxRectangle width="41" height="50" as="alternateBounds" />
          </mxGeometry>
        </mxCell>
        <mxCell id="bHGPRDREGYTepMsv2Tip-58" value="Data DATA" style="shape=partialRectangle;html=1;whiteSpace=wrap;connectable=0;fillColor=none;top=0;left=0;bottom=0;right=0;align=left;spacingLeft=6;overflow=hidden;strokeColor=inherit;fontSize=16;" vertex="1" parent="bHGPRDREGYTepMsv2Tip-56">
          <mxGeometry x="41" width="199" height="50" as="geometry">
            <mxRectangle width="199" height="50" as="alternateBounds" />
          </mxGeometry>
        </mxCell>
        <mxCell id="bHGPRDREGYTepMsv2Tip-59" style="edgeStyle=orthogonalEdgeStyle;rounded=0;orthogonalLoop=1;jettySize=auto;html=1;exitX=1;exitY=0.5;exitDx=0;exitDy=0;entryX=1;entryY=0.5;entryDx=0;entryDy=0;" edge="1" parent="1" source="bHGPRDREGYTepMsv2Tip-15" target="bHGPRDREGYTepMsv2Tip-47">
          <mxGeometry relative="1" as="geometry" />
        </mxCell>
        <mxCell id="bHGPRDREGYTepMsv2Tip-60" value="ITEM" style="shape=table;startSize=30;container=1;collapsible=0;childLayout=tableLayout;fixedRows=1;rowLines=0;fontStyle=0;strokeColor=default;fontSize=16;" vertex="1" parent="1">
          <mxGeometry x="70" y="650" width="230" height="210" as="geometry" />
        </mxCell>
        <mxCell id="bHGPRDREGYTepMsv2Tip-61" value="" style="shape=tableRow;horizontal=0;startSize=0;swimlaneHead=0;swimlaneBody=0;top=0;left=0;bottom=0;right=0;collapsible=0;dropTarget=0;fillColor=none;points=[[0,0.5],[1,0.5]];portConstraint=eastwest;strokeColor=inherit;fontSize=16;" vertex="1" parent="bHGPRDREGYTepMsv2Tip-60">
          <mxGeometry y="30" width="230" height="30" as="geometry" />
        </mxCell>
        <mxCell id="bHGPRDREGYTepMsv2Tip-62" value="1" style="shape=partialRectangle;html=1;whiteSpace=wrap;connectable=0;fillColor=none;top=0;left=0;bottom=0;right=0;overflow=hidden;pointerEvents=1;strokeColor=inherit;fontSize=16;" vertex="1" parent="bHGPRDREGYTepMsv2Tip-61">
          <mxGeometry width="40" height="30" as="geometry">
            <mxRectangle width="40" height="30" as="alternateBounds" />
          </mxGeometry>
        </mxCell>
        <mxCell id="bHGPRDREGYTepMsv2Tip-63" value="ID item PK" style="shape=partialRectangle;html=1;whiteSpace=wrap;connectable=0;fillColor=none;top=0;left=0;bottom=0;right=0;align=left;spacingLeft=6;overflow=hidden;strokeColor=inherit;fontSize=16;" vertex="1" parent="bHGPRDREGYTepMsv2Tip-61">
          <mxGeometry x="40" width="190" height="30" as="geometry">
            <mxRectangle width="190" height="30" as="alternateBounds" />
          </mxGeometry>
        </mxCell>
        <mxCell id="bHGPRDREGYTepMsv2Tip-67" value="" style="shape=tableRow;horizontal=0;startSize=0;swimlaneHead=0;swimlaneBody=0;top=0;left=0;bottom=0;right=0;collapsible=0;dropTarget=0;fillColor=none;points=[[0,0.5],[1,0.5]];portConstraint=eastwest;strokeColor=inherit;fontSize=16;" vertex="1" parent="bHGPRDREGYTepMsv2Tip-60">
          <mxGeometry y="60" width="230" height="80" as="geometry" />
        </mxCell>
        <mxCell id="bHGPRDREGYTepMsv2Tip-68" value="2" style="shape=partialRectangle;html=1;whiteSpace=wrap;connectable=0;fillColor=none;top=0;left=0;bottom=0;right=0;overflow=hidden;strokeColor=inherit;fontSize=16;" vertex="1" parent="bHGPRDREGYTepMsv2Tip-67">
          <mxGeometry width="40" height="80" as="geometry">
            <mxRectangle width="40" height="80" as="alternateBounds" />
          </mxGeometry>
        </mxCell>
        <mxCell id="bHGPRDREGYTepMsv2Tip-69" value="&lt;pre dir=&quot;ltr&quot; style=&quot;text-align:left&quot; id=&quot;tw-target-text&quot; data-placeholder=&quot;Перевод&quot; class=&quot;tw-data-text tw-text-large tw-ta&quot;&gt;Literature&lt;/pre&gt;&amp;nbsp;VARCAR(40)" style="shape=partialRectangle;html=1;whiteSpace=wrap;connectable=0;fillColor=none;top=0;left=0;bottom=0;right=0;align=left;spacingLeft=6;overflow=hidden;strokeColor=inherit;fontSize=16;" vertex="1" parent="bHGPRDREGYTepMsv2Tip-67">
          <mxGeometry x="40" width="190" height="80" as="geometry">
            <mxRectangle width="190" height="80" as="alternateBounds" />
          </mxGeometry>
        </mxCell>
        <mxCell id="bHGPRDREGYTepMsv2Tip-70" value="" style="shape=tableRow;horizontal=0;startSize=0;swimlaneHead=0;swimlaneBody=0;top=0;left=0;bottom=0;right=0;collapsible=0;dropTarget=0;fillColor=none;points=[[0,0.5],[1,0.5]];portConstraint=eastwest;strokeColor=inherit;fontSize=16;" vertex="1" parent="bHGPRDREGYTepMsv2Tip-60">
          <mxGeometry y="140" width="230" height="60" as="geometry" />
        </mxCell>
        <mxCell id="bHGPRDREGYTepMsv2Tip-71" value="3" style="shape=partialRectangle;html=1;whiteSpace=wrap;connectable=0;fillColor=none;top=0;left=0;bottom=0;right=0;overflow=hidden;strokeColor=inherit;fontSize=16;" vertex="1" parent="bHGPRDREGYTepMsv2Tip-70">
          <mxGeometry width="40" height="60" as="geometry">
            <mxRectangle width="40" height="60" as="alternateBounds" />
          </mxGeometry>
        </mxCell>
        <mxCell id="bHGPRDREGYTepMsv2Tip-72" value="&lt;pre dir=&quot;ltr&quot; style=&quot;text-align:left&quot; id=&quot;tw-target-text&quot; data-placeholder=&quot;Перевод&quot; class=&quot;tw-data-text tw-text-large tw-ta&quot;&gt;mathematics&lt;/pre&gt;" style="shape=partialRectangle;html=1;whiteSpace=wrap;connectable=0;fillColor=none;top=0;left=0;bottom=0;right=0;align=left;spacingLeft=6;overflow=hidden;strokeColor=inherit;fontSize=16;" vertex="1" parent="bHGPRDREGYTepMsv2Tip-70">
          <mxGeometry x="40" width="190" height="60" as="geometry">
            <mxRectangle width="190" height="60" as="alternateBounds" />
          </mxGeometry>
        </mxCell>
        <mxCell id="bHGPRDREGYTepMsv2Tip-109" value="Studens" style="shape=table;startSize=20;container=1;collapsible=0;childLayout=tableLayout;fixedRows=1;rowLines=0;fontStyle=0;strokeColor=default;fontSize=16;" vertex="1" parent="1">
          <mxGeometry x="370" y="20" width="350" height="360" as="geometry" />
        </mxCell>
        <mxCell id="bHGPRDREGYTepMsv2Tip-110" value="" style="shape=tableRow;horizontal=0;startSize=0;swimlaneHead=0;swimlaneBody=0;top=0;left=0;bottom=0;right=0;collapsible=0;dropTarget=0;fillColor=none;points=[[0,0.5],[1,0.5]];portConstraint=eastwest;strokeColor=inherit;fontSize=16;" vertex="1" parent="bHGPRDREGYTepMsv2Tip-109">
          <mxGeometry y="20" width="350" height="50" as="geometry" />
        </mxCell>
        <mxCell id="bHGPRDREGYTepMsv2Tip-111" value="1" style="shape=partialRectangle;html=1;whiteSpace=wrap;connectable=0;fillColor=none;top=0;left=0;bottom=0;right=0;overflow=hidden;pointerEvents=1;strokeColor=inherit;fontSize=16;" vertex="1" parent="bHGPRDREGYTepMsv2Tip-110">
          <mxGeometry width="50" height="50" as="geometry">
            <mxRectangle width="50" height="50" as="alternateBounds" />
          </mxGeometry>
        </mxCell>
        <mxCell id="bHGPRDREGYTepMsv2Tip-112" value="Surname VARCHAR (100) FK" style="shape=partialRectangle;html=1;whiteSpace=wrap;connectable=0;fillColor=none;top=0;left=0;bottom=0;right=0;align=left;spacingLeft=6;overflow=hidden;strokeColor=inherit;fontSize=16;" vertex="1" parent="bHGPRDREGYTepMsv2Tip-110">
          <mxGeometry x="50" width="300" height="50" as="geometry">
            <mxRectangle width="300" height="50" as="alternateBounds" />
          </mxGeometry>
        </mxCell>
        <mxCell id="bHGPRDREGYTepMsv2Tip-125" value="" style="shape=tableRow;horizontal=0;startSize=0;swimlaneHead=0;swimlaneBody=0;top=0;left=0;bottom=0;right=0;collapsible=0;dropTarget=0;fillColor=none;points=[[0,0.5],[1,0.5]];portConstraint=eastwest;strokeColor=inherit;fontSize=16;" vertex="1" parent="bHGPRDREGYTepMsv2Tip-109">
          <mxGeometry y="70" width="350" height="50" as="geometry" />
        </mxCell>
        <mxCell id="bHGPRDREGYTepMsv2Tip-126" value="2" style="shape=partialRectangle;html=1;whiteSpace=wrap;connectable=0;fillColor=none;top=0;left=0;bottom=0;right=0;overflow=hidden;pointerEvents=1;strokeColor=inherit;fontSize=16;" vertex="1" parent="bHGPRDREGYTepMsv2Tip-125">
          <mxGeometry width="50" height="50" as="geometry">
            <mxRectangle width="50" height="50" as="alternateBounds" />
          </mxGeometry>
        </mxCell>
        <mxCell id="bHGPRDREGYTepMsv2Tip-127" value="Name VARCHAR(45)" style="shape=partialRectangle;html=1;whiteSpace=wrap;connectable=0;fillColor=none;top=0;left=0;bottom=0;right=0;align=left;spacingLeft=6;overflow=hidden;strokeColor=inherit;fontSize=16;" vertex="1" parent="bHGPRDREGYTepMsv2Tip-125">
          <mxGeometry x="50" width="300" height="50" as="geometry">
            <mxRectangle width="300" height="50" as="alternateBounds" />
          </mxGeometry>
        </mxCell>
        <mxCell id="bHGPRDREGYTepMsv2Tip-113" value="" style="shape=tableRow;horizontal=0;startSize=0;swimlaneHead=0;swimlaneBody=0;top=0;left=0;bottom=0;right=0;collapsible=0;dropTarget=0;fillColor=none;points=[[0,0.5],[1,0.5]];portConstraint=eastwest;strokeColor=inherit;fontSize=16;" vertex="1" parent="bHGPRDREGYTepMsv2Tip-109">
          <mxGeometry y="120" width="350" height="70" as="geometry" />
        </mxCell>
        <mxCell id="bHGPRDREGYTepMsv2Tip-114" value="3" style="shape=partialRectangle;html=1;whiteSpace=wrap;connectable=0;fillColor=none;top=0;left=0;bottom=0;right=0;overflow=hidden;strokeColor=inherit;fontSize=16;" vertex="1" parent="bHGPRDREGYTepMsv2Tip-113">
          <mxGeometry width="50" height="70" as="geometry">
            <mxRectangle width="50" height="70" as="alternateBounds" />
          </mxGeometry>
        </mxCell>
        <mxCell id="bHGPRDREGYTepMsv2Tip-115" value="&lt;pre dir=&quot;ltr&quot; style=&quot;text-align:left&quot; id=&quot;tw-target-text&quot; data-placeholder=&quot;Перевод&quot; class=&quot;tw-data-text tw-text-large tw-ta&quot;&gt;patronymic VARCHAR(45)&lt;/pre&gt;" style="shape=partialRectangle;html=1;whiteSpace=wrap;connectable=0;fillColor=none;top=0;left=0;bottom=0;right=0;align=left;spacingLeft=6;overflow=hidden;strokeColor=inherit;fontSize=16;" vertex="1" parent="bHGPRDREGYTepMsv2Tip-113">
          <mxGeometry x="50" width="300" height="70" as="geometry">
            <mxRectangle width="300" height="70" as="alternateBounds" />
          </mxGeometry>
        </mxCell>
        <mxCell id="bHGPRDREGYTepMsv2Tip-116" value="" style="shape=tableRow;horizontal=0;startSize=0;swimlaneHead=0;swimlaneBody=0;top=0;left=0;bottom=0;right=0;collapsible=0;dropTarget=0;fillColor=none;points=[[0,0.5],[1,0.5]];portConstraint=eastwest;strokeColor=inherit;fontSize=16;" vertex="1" parent="bHGPRDREGYTepMsv2Tip-109">
          <mxGeometry y="190" width="350" height="70" as="geometry" />
        </mxCell>
        <mxCell id="bHGPRDREGYTepMsv2Tip-117" value="4" style="shape=partialRectangle;html=1;whiteSpace=wrap;connectable=0;fillColor=none;top=0;left=0;bottom=0;right=0;overflow=hidden;pointerEvents=1;strokeColor=inherit;fontSize=16;" vertex="1" parent="bHGPRDREGYTepMsv2Tip-116">
          <mxGeometry width="50" height="70" as="geometry">
            <mxRectangle width="50" height="70" as="alternateBounds" />
          </mxGeometry>
        </mxCell>
        <mxCell id="bHGPRDREGYTepMsv2Tip-118" value="&lt;pre dir=&quot;ltr&quot; style=&quot;text-align:left&quot; id=&quot;tw-target-text&quot; data-placeholder=&quot;Перевод&quot; class=&quot;tw-data-text tw-text-large tw-ta&quot;&gt;Date of Birth DATE&lt;/pre&gt;" style="shape=partialRectangle;html=1;whiteSpace=wrap;connectable=0;fillColor=none;top=0;left=0;bottom=0;right=0;align=left;spacingLeft=6;overflow=hidden;strokeColor=inherit;fontSize=16;" vertex="1" parent="bHGPRDREGYTepMsv2Tip-116">
          <mxGeometry x="50" width="300" height="70" as="geometry">
            <mxRectangle width="300" height="70" as="alternateBounds" />
          </mxGeometry>
        </mxCell>
        <mxCell id="bHGPRDREGYTepMsv2Tip-119" value="" style="shape=tableRow;horizontal=0;startSize=0;swimlaneHead=0;swimlaneBody=0;top=0;left=0;bottom=0;right=0;collapsible=0;dropTarget=0;fillColor=none;points=[[0,0.5],[1,0.5]];portConstraint=eastwest;strokeColor=inherit;fontSize=16;" vertex="1" parent="bHGPRDREGYTepMsv2Tip-109">
          <mxGeometry y="260" width="350" height="50" as="geometry" />
        </mxCell>
        <mxCell id="bHGPRDREGYTepMsv2Tip-120" value="5" style="shape=partialRectangle;html=1;whiteSpace=wrap;connectable=0;fillColor=none;top=0;left=0;bottom=0;right=0;overflow=hidden;pointerEvents=1;strokeColor=inherit;fontSize=16;" vertex="1" parent="bHGPRDREGYTepMsv2Tip-119">
          <mxGeometry width="50" height="50" as="geometry">
            <mxRectangle width="50" height="50" as="alternateBounds" />
          </mxGeometry>
        </mxCell>
        <mxCell id="bHGPRDREGYTepMsv2Tip-121" value="Class VARCHAR (4) PK" style="shape=partialRectangle;html=1;whiteSpace=wrap;connectable=0;fillColor=none;top=0;left=0;bottom=0;right=0;align=left;spacingLeft=6;overflow=hidden;strokeColor=inherit;fontSize=16;" vertex="1" parent="bHGPRDREGYTepMsv2Tip-119">
          <mxGeometry x="50" width="300" height="50" as="geometry">
            <mxRectangle width="300" height="50" as="alternateBounds" />
          </mxGeometry>
        </mxCell>
        <mxCell id="bHGPRDREGYTepMsv2Tip-122" value="" style="shape=tableRow;horizontal=0;startSize=0;swimlaneHead=0;swimlaneBody=0;top=0;left=0;bottom=0;right=0;collapsible=0;dropTarget=0;fillColor=none;points=[[0,0.5],[1,0.5]];portConstraint=eastwest;strokeColor=inherit;fontSize=16;" vertex="1" parent="bHGPRDREGYTepMsv2Tip-109">
          <mxGeometry y="310" width="350" height="50" as="geometry" />
        </mxCell>
        <mxCell id="bHGPRDREGYTepMsv2Tip-123" value="6" style="shape=partialRectangle;html=1;whiteSpace=wrap;connectable=0;fillColor=none;top=0;left=0;bottom=0;right=0;overflow=hidden;pointerEvents=1;strokeColor=inherit;fontSize=16;" vertex="1" parent="bHGPRDREGYTepMsv2Tip-122">
          <mxGeometry width="50" height="50" as="geometry">
            <mxRectangle width="50" height="50" as="alternateBounds" />
          </mxGeometry>
        </mxCell>
        <mxCell id="bHGPRDREGYTepMsv2Tip-124" value="Student ID&amp;nbsp; PK" style="shape=partialRectangle;html=1;whiteSpace=wrap;connectable=0;fillColor=none;top=0;left=0;bottom=0;right=0;align=left;spacingLeft=6;overflow=hidden;strokeColor=inherit;fontSize=16;" vertex="1" parent="bHGPRDREGYTepMsv2Tip-122">
          <mxGeometry x="50" width="300" height="50" as="geometry">
            <mxRectangle width="300" height="50" as="alternateBounds" />
          </mxGeometry>
        </mxCell>
        <mxCell id="bHGPRDREGYTepMsv2Tip-128" value="Teacher" style="shape=table;startSize=20;container=1;collapsible=0;childLayout=tableLayout;fixedRows=1;rowLines=0;fontStyle=0;strokeColor=default;fontSize=16;" vertex="1" parent="1">
          <mxGeometry x="370" y="420" width="350" height="410" as="geometry" />
        </mxCell>
        <mxCell id="bHGPRDREGYTepMsv2Tip-129" value="" style="shape=tableRow;horizontal=0;startSize=0;swimlaneHead=0;swimlaneBody=0;top=0;left=0;bottom=0;right=0;collapsible=0;dropTarget=0;fillColor=none;points=[[0,0.5],[1,0.5]];portConstraint=eastwest;strokeColor=inherit;fontSize=16;" vertex="1" parent="bHGPRDREGYTepMsv2Tip-128">
          <mxGeometry y="20" width="350" height="50" as="geometry" />
        </mxCell>
        <mxCell id="bHGPRDREGYTepMsv2Tip-130" value="1" style="shape=partialRectangle;html=1;whiteSpace=wrap;connectable=0;fillColor=none;top=0;left=0;bottom=0;right=0;overflow=hidden;pointerEvents=1;strokeColor=inherit;fontSize=16;" vertex="1" parent="bHGPRDREGYTepMsv2Tip-129">
          <mxGeometry width="50" height="50" as="geometry">
            <mxRectangle width="50" height="50" as="alternateBounds" />
          </mxGeometry>
        </mxCell>
        <mxCell id="bHGPRDREGYTepMsv2Tip-131" value="Surname VARCHAR (100) " style="shape=partialRectangle;html=1;whiteSpace=wrap;connectable=0;fillColor=none;top=0;left=0;bottom=0;right=0;align=left;spacingLeft=6;overflow=hidden;strokeColor=inherit;fontSize=16;" vertex="1" parent="bHGPRDREGYTepMsv2Tip-129">
          <mxGeometry x="50" width="300" height="50" as="geometry">
            <mxRectangle width="300" height="50" as="alternateBounds" />
          </mxGeometry>
        </mxCell>
        <mxCell id="bHGPRDREGYTepMsv2Tip-132" value="" style="shape=tableRow;horizontal=0;startSize=0;swimlaneHead=0;swimlaneBody=0;top=0;left=0;bottom=0;right=0;collapsible=0;dropTarget=0;fillColor=none;points=[[0,0.5],[1,0.5]];portConstraint=eastwest;strokeColor=inherit;fontSize=16;" vertex="1" parent="bHGPRDREGYTepMsv2Tip-128">
          <mxGeometry y="70" width="350" height="50" as="geometry" />
        </mxCell>
        <mxCell id="bHGPRDREGYTepMsv2Tip-133" value="2" style="shape=partialRectangle;html=1;whiteSpace=wrap;connectable=0;fillColor=none;top=0;left=0;bottom=0;right=0;overflow=hidden;pointerEvents=1;strokeColor=inherit;fontSize=16;" vertex="1" parent="bHGPRDREGYTepMsv2Tip-132">
          <mxGeometry width="50" height="50" as="geometry">
            <mxRectangle width="50" height="50" as="alternateBounds" />
          </mxGeometry>
        </mxCell>
        <mxCell id="bHGPRDREGYTepMsv2Tip-134" value="Name VARCHAR(45)" style="shape=partialRectangle;html=1;whiteSpace=wrap;connectable=0;fillColor=none;top=0;left=0;bottom=0;right=0;align=left;spacingLeft=6;overflow=hidden;strokeColor=inherit;fontSize=16;" vertex="1" parent="bHGPRDREGYTepMsv2Tip-132">
          <mxGeometry x="50" width="300" height="50" as="geometry">
            <mxRectangle width="300" height="50" as="alternateBounds" />
          </mxGeometry>
        </mxCell>
        <mxCell id="bHGPRDREGYTepMsv2Tip-135" value="" style="shape=tableRow;horizontal=0;startSize=0;swimlaneHead=0;swimlaneBody=0;top=0;left=0;bottom=0;right=0;collapsible=0;dropTarget=0;fillColor=none;points=[[0,0.5],[1,0.5]];portConstraint=eastwest;strokeColor=inherit;fontSize=16;" vertex="1" parent="bHGPRDREGYTepMsv2Tip-128">
          <mxGeometry y="120" width="350" height="70" as="geometry" />
        </mxCell>
        <mxCell id="bHGPRDREGYTepMsv2Tip-136" value="3" style="shape=partialRectangle;html=1;whiteSpace=wrap;connectable=0;fillColor=none;top=0;left=0;bottom=0;right=0;overflow=hidden;strokeColor=inherit;fontSize=16;" vertex="1" parent="bHGPRDREGYTepMsv2Tip-135">
          <mxGeometry width="50" height="70" as="geometry">
            <mxRectangle width="50" height="70" as="alternateBounds" />
          </mxGeometry>
        </mxCell>
        <mxCell id="bHGPRDREGYTepMsv2Tip-137" value="&lt;pre dir=&quot;ltr&quot; style=&quot;text-align:left&quot; id=&quot;tw-target-text&quot; data-placeholder=&quot;Перевод&quot; class=&quot;tw-data-text tw-text-large tw-ta&quot;&gt;patronymic VARCHAR(45)&lt;/pre&gt;" style="shape=partialRectangle;html=1;whiteSpace=wrap;connectable=0;fillColor=none;top=0;left=0;bottom=0;right=0;align=left;spacingLeft=6;overflow=hidden;strokeColor=inherit;fontSize=16;" vertex="1" parent="bHGPRDREGYTepMsv2Tip-135">
          <mxGeometry x="50" width="300" height="70" as="geometry">
            <mxRectangle width="300" height="70" as="alternateBounds" />
          </mxGeometry>
        </mxCell>
        <mxCell id="bHGPRDREGYTepMsv2Tip-138" value="" style="shape=tableRow;horizontal=0;startSize=0;swimlaneHead=0;swimlaneBody=0;top=0;left=0;bottom=0;right=0;collapsible=0;dropTarget=0;fillColor=none;points=[[0,0.5],[1,0.5]];portConstraint=eastwest;strokeColor=inherit;fontSize=16;" vertex="1" parent="bHGPRDREGYTepMsv2Tip-128">
          <mxGeometry y="190" width="350" height="70" as="geometry" />
        </mxCell>
        <mxCell id="bHGPRDREGYTepMsv2Tip-139" value="4" style="shape=partialRectangle;html=1;whiteSpace=wrap;connectable=0;fillColor=none;top=0;left=0;bottom=0;right=0;overflow=hidden;pointerEvents=1;strokeColor=inherit;fontSize=16;" vertex="1" parent="bHGPRDREGYTepMsv2Tip-138">
          <mxGeometry width="50" height="70" as="geometry">
            <mxRectangle width="50" height="70" as="alternateBounds" />
          </mxGeometry>
        </mxCell>
        <mxCell id="bHGPRDREGYTepMsv2Tip-140" value="&lt;pre dir=&quot;ltr&quot; style=&quot;text-align:left&quot; id=&quot;tw-target-text&quot; data-placeholder=&quot;Перевод&quot; class=&quot;tw-data-text tw-text-large tw-ta&quot;&gt;Date of Birth DATE&lt;/pre&gt;" style="shape=partialRectangle;html=1;whiteSpace=wrap;connectable=0;fillColor=none;top=0;left=0;bottom=0;right=0;align=left;spacingLeft=6;overflow=hidden;strokeColor=inherit;fontSize=16;" vertex="1" parent="bHGPRDREGYTepMsv2Tip-138">
          <mxGeometry x="50" width="300" height="70" as="geometry">
            <mxRectangle width="300" height="70" as="alternateBounds" />
          </mxGeometry>
        </mxCell>
        <mxCell id="bHGPRDREGYTepMsv2Tip-141" value="" style="shape=tableRow;horizontal=0;startSize=0;swimlaneHead=0;swimlaneBody=0;top=0;left=0;bottom=0;right=0;collapsible=0;dropTarget=0;fillColor=none;points=[[0,0.5],[1,0.5]];portConstraint=eastwest;strokeColor=inherit;fontSize=16;" vertex="1" parent="bHGPRDREGYTepMsv2Tip-128">
          <mxGeometry y="260" width="350" height="50" as="geometry" />
        </mxCell>
        <mxCell id="bHGPRDREGYTepMsv2Tip-142" value="5" style="shape=partialRectangle;html=1;whiteSpace=wrap;connectable=0;fillColor=none;top=0;left=0;bottom=0;right=0;overflow=hidden;pointerEvents=1;strokeColor=inherit;fontSize=16;" vertex="1" parent="bHGPRDREGYTepMsv2Tip-141">
          <mxGeometry width="50" height="50" as="geometry">
            <mxRectangle width="50" height="50" as="alternateBounds" />
          </mxGeometry>
        </mxCell>
        <mxCell id="bHGPRDREGYTepMsv2Tip-143" value="Item VARCHAR (45) FK" style="shape=partialRectangle;html=1;whiteSpace=wrap;connectable=0;fillColor=none;top=0;left=0;bottom=0;right=0;align=left;spacingLeft=6;overflow=hidden;strokeColor=inherit;fontSize=16;" vertex="1" parent="bHGPRDREGYTepMsv2Tip-141">
          <mxGeometry x="50" width="300" height="50" as="geometry">
            <mxRectangle width="300" height="50" as="alternateBounds" />
          </mxGeometry>
        </mxCell>
        <mxCell id="bHGPRDREGYTepMsv2Tip-144" value="" style="shape=tableRow;horizontal=0;startSize=0;swimlaneHead=0;swimlaneBody=0;top=0;left=0;bottom=0;right=0;collapsible=0;dropTarget=0;fillColor=none;points=[[0,0.5],[1,0.5]];portConstraint=eastwest;strokeColor=inherit;fontSize=16;" vertex="1" parent="bHGPRDREGYTepMsv2Tip-128">
          <mxGeometry y="310" width="350" height="50" as="geometry" />
        </mxCell>
        <mxCell id="bHGPRDREGYTepMsv2Tip-145" value="6" style="shape=partialRectangle;html=1;whiteSpace=wrap;connectable=0;fillColor=none;top=0;left=0;bottom=0;right=0;overflow=hidden;pointerEvents=1;strokeColor=inherit;fontSize=16;" vertex="1" parent="bHGPRDREGYTepMsv2Tip-144">
          <mxGeometry width="50" height="50" as="geometry">
            <mxRectangle width="50" height="50" as="alternateBounds" />
          </mxGeometry>
        </mxCell>
        <mxCell id="bHGPRDREGYTepMsv2Tip-146" value="&lt;pre dir=&quot;ltr&quot; style=&quot;text-align:left&quot; id=&quot;tw-target-text&quot; data-placeholder=&quot;Перевод&quot; class=&quot;tw-data-text tw-text-large tw-ta&quot;&gt;Teacher&amp;nbsp;ID&lt;/pre&gt;" style="shape=partialRectangle;html=1;whiteSpace=wrap;connectable=0;fillColor=none;top=0;left=0;bottom=0;right=0;align=left;spacingLeft=6;overflow=hidden;strokeColor=inherit;fontSize=16;" vertex="1" parent="bHGPRDREGYTepMsv2Tip-144">
          <mxGeometry x="50" width="300" height="50" as="geometry">
            <mxRectangle width="300" height="50" as="alternateBounds" />
          </mxGeometry>
        </mxCell>
        <mxCell id="bHGPRDREGYTepMsv2Tip-155" value="" style="shape=tableRow;horizontal=0;startSize=0;swimlaneHead=0;swimlaneBody=0;top=0;left=0;bottom=0;right=0;collapsible=0;dropTarget=0;fillColor=none;points=[[0,0.5],[1,0.5]];portConstraint=eastwest;strokeColor=inherit;fontSize=16;" vertex="1" parent="bHGPRDREGYTepMsv2Tip-128">
          <mxGeometry y="360" width="350" height="50" as="geometry" />
        </mxCell>
        <mxCell id="bHGPRDREGYTepMsv2Tip-156" value="6" style="shape=partialRectangle;html=1;whiteSpace=wrap;connectable=0;fillColor=none;top=0;left=0;bottom=0;right=0;overflow=hidden;pointerEvents=1;strokeColor=inherit;fontSize=16;" vertex="1" parent="bHGPRDREGYTepMsv2Tip-155">
          <mxGeometry width="50" height="50" as="geometry">
            <mxRectangle width="50" height="50" as="alternateBounds" />
          </mxGeometry>
        </mxCell>
        <mxCell id="bHGPRDREGYTepMsv2Tip-157" value="Class VARCHAR(5) PK" style="shape=partialRectangle;html=1;whiteSpace=wrap;connectable=0;fillColor=none;top=0;left=0;bottom=0;right=0;align=left;spacingLeft=6;overflow=hidden;strokeColor=inherit;fontSize=16;" vertex="1" parent="bHGPRDREGYTepMsv2Tip-155">
          <mxGeometry x="50" width="300" height="50" as="geometry">
            <mxRectangle width="300" height="50" as="alternateBounds" />
          </mxGeometry>
        </mxCell>
        <mxCell id="bHGPRDREGYTepMsv2Tip-159" style="edgeStyle=orthogonalEdgeStyle;rounded=0;orthogonalLoop=1;jettySize=auto;html=1;entryX=1;entryY=0.5;entryDx=0;entryDy=0;" edge="1" parent="1" source="bHGPRDREGYTepMsv2Tip-155" target="bHGPRDREGYTepMsv2Tip-119">
          <mxGeometry relative="1" as="geometry">
            <Array as="points">
              <mxPoint x="740" y="805" />
              <mxPoint x="740" y="305" />
            </Array>
          </mxGeometry>
        </mxCell>
        <mxCell id="bHGPRDREGYTepMsv2Tip-161" value="" style="endArrow=classic;startArrow=classic;html=1;rounded=0;entryX=0;entryY=0.5;entryDx=0;entryDy=0;" edge="1" parent="1" target="bHGPRDREGYTepMsv2Tip-141">
          <mxGeometry width="50" height="50" relative="1" as="geometry">
            <mxPoint x="300" y="700" as="sourcePoint" />
            <mxPoint x="350" y="650" as="targetPoint" />
          </mxGeometry>
        </mxCell>
        <mxCell id="bHGPRDREGYTepMsv2Tip-163" style="edgeStyle=orthogonalEdgeStyle;rounded=0;orthogonalLoop=1;jettySize=auto;html=1;entryX=-0.004;entryY=0.767;entryDx=0;entryDy=0;entryPerimeter=0;" edge="1" parent="1" source="bHGPRDREGYTepMsv2Tip-41" target="bHGPRDREGYTepMsv2Tip-61">
          <mxGeometry relative="1" as="geometry">
            <Array as="points">
              <mxPoint x="20" y="375" />
              <mxPoint x="20" y="703" />
            </Array>
          </mxGeometry>
        </mxCell>
      </root>
    </mxGraphModel>
  </diagram>
</mxfile>
